# xmcd CD database file
#
# Track frame offsets:
#	187
#	41505
#	58940
#	82242
#	109215
#	134235
#	166732
#	193075
#	229735
#
# Disc length: 3524 seconds
#
# Revision: 0
# Processed by: cddbd v1.4PL0 Copyright (c) Steve Scherf et al.
# Submitted via: CDex 1.50
#
DISCID=830dc209
DTITLE=Hal McKusick - Triple Exposure
DYEAR=1957
DGENRE=Jazz
TTITLE0=The Settlers And The Indians
TTITLE1=I'm Glad There Is You
TTITLE2=Something New
TTITLE3=A Touch Of Spring
TTITLE4=Blues Half-Smiling
TTITLE5=Saturday Night
TTITLE6=Interim
TTITLE7=Don't Worry 'Bout Me
TTITLE8=Con Alma
EXTD=YEAR: 1957
EXTT0=
EXTT1=
EXTT2=
EXTT3=
EXTT4=
EXTT5=
EXTT6=
EXTT7=
EXTT8=
PLAYORDER=
